# xmcd CD database file
#
# Track frame offsets:
#	150
#	14110
#	28741
#	42919
#	56078
#	69504
#	82153
#	94270
#	107150
#	120036
#	133438
#	162308
#	197220
#	241755
#	281782
#
# Disc length: 4698 seconds
#
# Revision: 0
# Processed by: cddbd v1.5.1PL0 Copyright (c) Steve Scherf et al.
# Submitted via: CDex 1.51
#
DISCID=dd12580f
DTITLE=Claude Bolling - Collector
DYEAR=1900
DGENRE=Jazz
TTITLE0=The mooche
TTITLE1=East St Louis toodle doo
TTITLE2=Wanderlust
TTITLE3=Whithout a song
TTITLE4=Morning glory
TTITLE5=Main stem
TTITLE6=Weary weird
TTITLE7=Stompy Jones
TTITLE8=Quand vous saurez
TTITLE9=Washington wobble
TTITLE10=Caravan
TTITLE11=Drop me off at Harlem
TTITLE12=C jam Blues
TTITLE13=Solitude
TTITLE14=Ellington medley
EXTD=
EXTT0=
EXTT1=
EXTT2=
EXTT3=
EXTT4=
EXTT5=
EXTT6=
EXTT7=
EXTT8=
EXTT9=
EXTT10=
EXTT11=
EXTT12=
EXTT13=
EXTT14=
PLAYORDER=
